#Comment line ignore any data following # character
#Hierarchical Translation and Rotation (.htr) file
[Header]		#Header keywords are followed by a single value
FileType htr		#Single word string
DataType HTRS		#Translation followed by rotation and scale data
FileVersion 1		#integer
NumSegments 15		#integer
NumFrames 4		#integer
DataFrameRate 60		#integer, data frame rate in this file
EulerRotationOrder ZYX
CalibrationUnits mm
RotationUnits Degrees
GlobalAxisofGravity Y
BoneLengthAxis Y
ScaleFactor 1.000000
[SegmentNames&Hierarchy]
#CHILD	PARENT
1cou	1buste
1buste	1bassin
1brasG	1buste
1brasD	1buste
1avbrasG	1brasG
1avbrasD	1brasD
1mainG	1avbrasG
1mainD	1avbrasD
1bassin	GLOBAL
1cuisseG	1bassin
1cuisseD	1bassin
1moletG	1cuisseG
1moletD	1cuisseD
1piedG	1moletG
1piedD	1moletD
[BasePosition]
#SegmentName Tx, Ty, Tz, Rx, Ry, Rz, BoneLength
1cou	0.000002	394.639771	0.000003	47.447697	-6.500580	2.097482	232.574402
1buste	0.331046	98.159424	9.920088	5.813737	-6.959647	-0.900074	394.639771
1brasG	222.293304	333.760773	-3.143221	-5.521868	-4.449825	-174.025208	338.016541
1brasD	-186.675308	347.235016	-30.968008	-5.508482	16.777920	169.824814	318.101379
1avbrasG	0.000004	338.016571	-0.000002	34.403133	17.432653	23.106703	253.821075
1avbrasD	-0.000007	318.101410	-0.000013	32.381824	-10.529597	-11.344105	276.946075
1mainG	0.000006	253.821091	-0.000001	-3.773718	-0.485368	-1.748444	73.639816
1mainD	-0.000031	276.946106	-0.000010	-3.909555	0.199285	0.225476	80.942635
1bassin	396.031860	1037.839600	833.112305	178.297836	19.764000	-179.799622	97.859962
1cuisseG	108.625954	-0.934603	-40.474510	172.403458	-4.353497	-0.165467	517.714233
1cuisseD	-106.972656	-1.326527	-48.733826	172.076172	-12.757409	2.045154	501.698334
1moletG	0.000006	517.714233	-0.000009	157.872192	5.331374	176.676331	488.075745
1moletD	-0.000005	501.698303	0.000003	156.316269	3.295414	-177.725830	511.880615
1piedG	0.000002	488.075745	-0.000006	99.880898	-0.000004	0.000000	242.425140
1piedD	-0.000009	511.880646	-0.000013	102.622849	0.000000	0.000000	237.138092
#Beginning of Data. Separated by tabs
[1cou]
#Fr	Tx	Ty	Tz	Rx	Ry	Rz	SF
112	-0.000002	-44.197144	-0.000014	-1.305944	-22.004843	18.073120	0.968212
113	-0.000001	-44.000916	-0.000003	-1.409331	-21.831707	18.029631	0.967765
114	-0.000003	-43.911682	0.000010	-1.597027	-21.842161	18.216480	0.968115
115	-0.000001	-44.049011	-0.000007	-1.796722	-21.718380	18.049391	0.971386
[1buste]
#Fr	Tx	Ty	Tz	Rx	Ry	Rz	SF
112	-0.178415	-11.613434	3.696148	3.159238	-1.755375	-0.392842	0.888006
113	-0.048285	-11.512566	3.363703	2.925713	-1.882343	-0.449056	0.888504
114	0.081099	-11.451897	3.109436	2.746311	-1.876191	-0.505943	0.888730
115	0.344346	-11.483963	3.080831	2.710004	-1.935245	-0.676745	0.888382
[1brasG]
#Fr	Tx	Ty	Tz	Rx	Ry	Rz	SF
112	-55.773102	-18.027374	41.048843	73.543816	29.420006	63.350662	0.897160
113	-55.812424	-18.143524	40.921791	73.605911	29.226425	63.511295	0.897382
114	-55.751434	-18.241608	40.460426	73.738449	28.957708	63.738358	0.898340
115	-55.589966	-18.541382	40.020065	73.890671	28.734650	63.955040	0.899347
[1brasD]
#Fr	Tx	Ty	Tz	Rx	Ry	Rz	SF
112	6.815811	-86.786255	-23.716776	-3.619800	-30.848465	18.905310	0.882270
113	6.518066	-86.156403	-23.226950	-3.482307	-31.039474	18.786421	0.881501
114	6.143890	-85.670502	-22.639734	-3.390961	-31.170795	18.747501	0.881130
115	5.759476	-85.528717	-23.014193	-3.094473	-31.243433	18.660337	0.880957
[1avbrasG]
#Fr	Tx	Ty	Tz	Rx	Ry	Rz	SF
112	0.000006	-34.761810	0.000000	37.080261	-11.036695	20.638165	1.152554
113	-0.000021	-34.686615	0.000008	36.977020	-11.110239	20.316128	1.152502
114	-0.000008	-34.362823	0.000012	36.916241	-11.202502	20.037918	1.152738
115	0.000023	-34.022461	0.000003	36.856541	-11.260509	19.845198	1.153019
[1avbrasD]
#Fr	Tx	Ty	Tz	Rx	Ry	Rz	SF
112	0.000005	-37.450195	0.000016	82.052811	-15.726412	-111.109009	0.881554
113	0.000015	-37.694763	0.000002	82.181313	-15.987398	-111.062256	0.881317
114	0.000005	-37.812653	-0.000019	82.228989	-16.150406	-110.960350	0.881120
115	0.000008	-37.867645	0.000009	82.256798	-16.392958	-110.674065	0.880532
[1mainG]
#Fr	Tx	Ty	Tz	Rx	Ry	Rz	SF
112	0.000006	38.721481	0.000004	2.279155	0.371433	1.754212	1.116170
113	-0.000005	38.708084	-0.000010	2.269767	0.371983	1.748464	1.116192
114	0.000012	38.768021	-0.000008	2.264040	0.372256	1.745317	1.116486
115	-0.000019	38.839554	0.000016	2.260198	0.372399	1.743500	1.116812
[1mainD]
#Fr	Tx	Ty	Tz	Rx	Ry	Rz	SF
112	0.000022	-32.803131	0.000020	2.808682	-0.123796	-0.592217	0.832857
113	0.000059	-32.868896	0.000008	2.819550	-0.107891	-0.567557	0.832547
114	0.000038	-32.923431	0.000010	2.824928	-0.099041	-0.554148	0.832312
115	0.000035	-33.086288	0.000003	2.831637	-0.088338	-0.537727	0.831666
[1bassin]
#Fr	Tx	Ty	Tz	Rx	Ry	Rz	SF
112	-950.076599	-850.832458	-99.766235	-112.049400	-4.567386	95.519287	0.907721
113	-949.121033	-850.723511	-101.190796	-112.121063	-4.600114	95.532021	0.909257
114	-948.429138	-850.557739	-102.580444	-112.140869	-4.618004	95.674744	0.909679
115	-947.957825	-850.242798	-103.545837	-112.252449	-4.573119	95.730461	0.910253
[1cuisseG]
#Fr	Tx	Ty	Tz	Rx	Ry	Rz	SF
112	-8.962479	-0.908849	-9.057674	-14.198116	-15.997354	-22.148104	0.994290
113	-8.724457	-0.822860	-9.049232	-14.386751	-15.889026	-22.158911	0.994300
114	-8.649170	-0.757992	-9.245155	-14.624449	-15.962424	-22.100014	0.995452
115	-8.536888	-0.682047	-9.330513	-14.767816	-15.965634	-21.818048	0.997863
[1cuisseD]
#Fr	Tx	Ty	Tz	Rx	Ry	Rz	SF
112	4.463127	-0.061653	13.424847	-44.841206	-16.468676	-16.544237	1.093945
113	4.302704	-0.077699	13.048832	-44.873524	-16.349981	-16.325521	1.095650
114	4.198387	-0.090747	13.000751	-44.860374	-16.355135	-16.077051	1.097844
115	4.091408	-0.166136	12.894501	-44.718964	-16.268463	-15.703342	1.099958
[1moletG]
#Fr	Tx	Ty	Tz	Rx	Ry	Rz	SF
112	-0.000020	-2.956055	-0.000008	-19.794254	-17.361946	5.428484	0.967418
113	-0.000003	-2.951111	0.000016	-19.329096	-17.737797	5.254815	0.967843
114	-0.000007	-2.354370	0.000012	-19.012918	-17.865875	5.058623	0.966315
115	0.000004	-1.106506	0.000034	-18.871737	-17.639568	5.025428	0.965071
[1moletD]
#Fr	Tx	Ty	Tz	Rx	Ry	Rz	SF
112	0.000015	47.132080	-0.000009	-85.433876	0.115256	1.702493	0.873291
113	0.000008	47.987183	0.000023	-84.427673	0.160699	1.765555	0.874172
114	0.000010	49.088196	-0.000016	-83.326286	0.305327	1.686708	0.875351
115	0.000008	50.148743	-0.000006	-82.189873	0.480495	1.496892	0.876546
[1piedG]
#Fr	Tx	Ty	Tz	Rx	Ry	Rz	SF
112	-0.000018	-15.902466	0.000025	9.124870	-0.000000	-0.000008	1.028172
113	-0.000000	-15.695251	0.000066	8.936615	-0.000001	0.000002	1.029018
114	0.000011	-16.440857	-0.000005	8.674086	-0.000001	-0.000002	1.028595
115	-0.000025	-17.048065	-0.000005	8.661416	-0.000003	-0.000008	1.032556
[1piedD]
#Fr	Tx	Ty	Tz	Rx	Ry	Rz	SF
112	0.000005	-64.859772	-0.000000	9.773844	-0.000000	0.000000	1.056320
113	0.000013	-64.409149	-0.000001	9.584746	0.000000	0.000001	1.054221
114	0.000003	-63.805542	0.000028	9.575108	0.000000	0.000001	1.060627
115	0.000010	-63.193695	0.000040	9.562823	-0.000001	-0.000001	1.062712
[EndOfFile]
